<?xml version="1.0" ?><svg xmlns="http://www.w3.org/2000/svg" id="Layer_1" data-name="Layer 1" viewBox="0 0 128 128"><title/><path d="M124.82056,85.21393a9.56761,9.56761,0,0,0-7.78809-.92377,12.43352,12.43352,0,0,0-6.416-3.04468c-3.15234-.57611-6.11914-.14941-7.96289,1.14539l-7.112,4.31421c.01892.01355.03839.02332.05731.037A11.31211,11.31211,0,0,1,98.41,89.643s6.477-3.93207,6.52289-3.96429c.76758-.55951,2.60059-.93353,4.96191-.499a10.00561,10.00561,0,0,1,3.27039,1.18066L99.99957,94.88049a9.65473,9.65473,0,0,1-.27863,2.24457,11.25284,11.25284,0,0,1-1.84161,3.89154s19.4198-12.507,19.52521-12.56464a5.46011,5.46011,0,0,1,5.26062.13171,2.91175,2.91175,0,0,1,1.24524,3.1156,4.74207,4.74207,0,0,1-2.32324,2.509c-.00684.00391-.01953.0127-37.37891,23.63092-3.6875,1.86609-8.80664,1.20111-12.41016-.06049-.11719-.04-26.34473-8.86359-26.34473-8.86359a7.86672,7.86672,0,0,0-4.88672-.03027l-6.56641,2.29437v-26.396a5.45187,5.45187,0,0,0-.0307-.56738L37.72,83.09009c9.81445-2.949,20.25684.60345,30.35254,4.03772,3.33008,1.13177,10.0625,3.17651,10.0625,3.17651a65.58635,65.58635,0,0,0,7.19531,1.66589c.51172.0791,1.03809.13867,1.56934.19824a8.69244,8.69244,0,0,1,3.999,1.04675c1.30957.95111,1.12891,1.69324,1.05078,2.01062-.43262,1.76843-3.33984,3.94012-5.76172,4.30237-5.542.82709-12.54492,1.04-22.50391-3.68915A1.99964,1.99964,0,1,0,61.969,99.452c7.4375,3.532,13.40137,4.54944,18.38574,4.54944a42.78022,42.78022,0,0,0,6.4248-.51849c3.64355-.54486,8.15234-3.611,9.05566-7.307.335-1.37006.44434-3.99677-2.58691-6.19678a11.84041,11.84041,0,0,0-5.90137-1.785c-.47559-.05371-.94824-.10645-1.40625-.17676a61.43615,61.43615,0,0,1-6.75586-1.57312s-6.55566-1.992-9.82422-3.10327c-10.19531-3.46649-21.74707-7.3949-32.791-4.08264l-4.48517,1.34637a6.38389,6.38389,0,0,0-4.26776-1.61H2.00024a2,2,0,0,0-2,1.99982V116.9917a2,2,0,0,0,2,1.99982H27.81665a6.22248,6.22248,0,0,0,5.61414-3.37708l8.39563-2.934a3.86157,3.86157,0,0,1,2.34766.02441l26.32617,8.85675A26.15446,26.15446,0,0,0,78.74829,123a15.95048,15.95048,0,0,0,7.37207-1.64734c.05078-.02637.10059-.05469.14844-.085,0,0,37.29492-23.57721,37.43262-23.66412,1-.621,4.04395-2.51056,4.28223-6.15186A6.70425,6.70425,0,0,0,124.82056,85.21393ZM22.00024,108.99231a1.99985,1.99985,0,1,1,2-1.99982A1.99994,1.99994,0,0,1,22.00024,108.99231Z"/><path d="M73.00024,60.90369V70.9953h-4a1.99985,1.99985,0,1,0,0,3.99969h4v3.99969a2,2,0,0,0,4,0V74.995h4a1.99985,1.99985,0,1,0,0-3.99969h-4V60.90369A22.97345,22.97345,0,0,0,93.05359,23.77386L103.76831,13.06l-.689,3.55975a2.00027,2.00027,0,0,0,3.92773.7597l1.93457-9.99921a2.00079,2.00079,0,0,0-2.34375-2.34357l-10,1.93439a2.00012,2.00012,0,1,0,.75977,3.92743l3.61578-.69971L90.31409,20.8573A22.9914,22.9914,0,1,0,73.00024,60.90369Zm-3.375-30.33191a6.19918,6.19918,0,0,1,4.39941-1.69336V26.99878a2,2,0,0,1,4,0v1.8739h.91211a1.99985,1.99985,0,1,1,0,3.99969H74.13892c-1.98437,0-2.13867,1.23132-2.13867,1.60925,0,.77826.56055,1.6864,2.13867,1.6864h1.71289c4.03613,0,6.14844,2.81909,6.14844,5.604a5.55167,5.55167,0,0,1-1.63184,3.95282,5.81761,5.81761,0,0,1-2.34375,1.4165v1.85571a2,2,0,0,1-4,0v-1.5282H71.053a1.99985,1.99985,0,1,1,0-3.99969h4.79883c1.0274,0,2.14868-.51782,2.14844-1.69739-.00006-.37726-.15576-1.60413-2.14844-1.60413H74.13892a5.78893,5.78893,0,0,1-6.13867-5.686A5.43748,5.43748,0,0,1,69.62524,30.57178Z"/><circle cx="54.00024" cy="17.00073" r="2"/><circle cx="48.64539" cy="22.91687" r="2"/><circle cx="45.19019" cy="30.09772" r="2"/><circle cx="44.00024" cy="37.98816" r="2"/><circle cx="45.17993" cy="45.86877" r="2"/><circle cx="48.63141" cy="53.05792" r="2"/><circle cx="54.00024" cy="58.99762" r="2"/></svg>