<?xml version="1.0" ?><!DOCTYPE svg  PUBLIC '-//W3C//DTD SVG 1.1//EN'  'http://www.w3.org/Graphics/SVG/1.1/DTD/svg11.dtd'><svg height="512px" style="enable-background:new 0 0 512 512;" version="1.1" viewBox="0 0 512 512" width="512px" xml:space="preserve" xmlns="http://www.w3.org/2000/svg" xmlns:xlink="http://www.w3.org/1999/xlink"><g id="_x37_45_x2C__Family_x2C__Couple_x2C__Kids_x2C__Health"><g id="XMLID_823_"><g id="XMLID_824_"><path d="M412.5,140L412.5,140c-6.75,0-13.3-1.32-19.46-3.93c-5.96-2.52-11.3-6.12-15.9-10.72c-4.59-4.59-8.189-9.93-10.71-15.89     c-2.61-6.16-3.93-12.71-3.93-19.46s1.319-13.3,3.93-19.46c2.521-5.96,6.12-11.3,10.72-15.89c4.591-4.6,9.931-8.2,15.891-10.72     C399.2,41.32,405.75,40,412.5,40s13.3,1.32,19.46,3.93c5.96,2.52,11.3,6.12,15.89,10.72c4.59,4.59,8.2,9.93,10.72,15.89     C461.18,76.7,462.5,83.25,462.5,90s-1.32,13.3-3.931,19.46c-2.52,5.96-6.119,11.3-10.72,15.89c-4.59,4.6-9.93,8.2-15.89,10.72     C425.8,138.68,419.25,140,412.5,140z M412.5,60c-16.51,0.03-29.97,13.49-30,30c0.03,16.51,13.49,29.97,30,30     c16.51-0.03,29.97-13.49,30-30C442.47,73.49,429.01,60.03,412.5,60L412.5,60z"/></g><g id="XMLID_825_"><path d="M460,295c-5.51,0-10-4.49-10-10v-85c0-5.51,4.49-10,10-10s10,4.49,10,10v85C470,290.51,465.51,295,460,295z"/></g><g id="XMLID_826_"><path d="M365,295c-5.51,0-10-4.49-10-10v-85c0-5.51,4.49-10,10-10s10,4.49,10,10v85C375,290.51,370.51,295,365,295z"/></g><g id="XMLID_827_"><path d="M435.81,490c-5.51,0-10-4.49-10-10s4.49-10,10-10c5.521,0,10,4.49,10,10S441.33,490,435.81,490z M385.81,490H365     c-2.63,0-5.21-1.07-7.07-2.931c-1.86-1.859-2.93-4.439-2.93-7.069V309.5c-1.63,0.33-3.32,0.5-5,0.5c-0.351,0-0.73-0.01-1.17-0.03     h-0.03c-6.45-0.3-12.67-3.229-17.06-8.05c-4.341-4.74-6.74-10.9-6.74-17.351V190c0-10.69,4.16-20.73,11.72-28.28     C344.27,154.17,354.31,150,365,150h95c10.689,0,20.729,4.17,28.28,11.72C495.84,169.27,500,179.31,500,190v94.569     c-0.01,6.45-2.4,12.61-6.74,17.351c-4.39,4.82-10.61,7.75-17.07,8.05h-0.02c-0.45,0.021-0.82,0.03-1.17,0.03     c-1.681,0-3.36-0.17-5-0.5v144.689c0,5.511-4.49,9.99-10,9.99s-10-4.479-10-9.99V285c0-2.63,1.069-5.21,2.93-7.07     S457.37,275,460,275s5.21,1.069,7.069,2.93c1.86,1.86,2.931,4.44,2.931,7.07c0,2.75,2.25,4.99,5,5c0.09,0,0.189,0,0.29-0.01     c0,0,0,0,0.01,0c1.23-0.07,2.29-0.591,3.21-1.58c0.95-1.03,1.5-2.431,1.49-3.841V190c-0.021-11.01-8.99-19.98-20-20h-95     c-11.01,0.02-19.98,8.99-20,20v94.569c-0.01,1.41,0.54,2.811,1.479,3.841c0.931,0.989,1.99,1.51,3.23,1.58c0,0,0,0,0.01,0     c0.09,0.01,0.19,0.01,0.28,0.01c2.75-0.01,4.99-2.25,5-5c0-2.63,1.069-5.21,2.93-7.07S362.37,275,365,275s5.21,1.069,7.069,2.93     c1.86,1.86,2.931,4.44,2.931,7.07v185h10.81c5.521,0,10,4.49,10,10S391.33,490,385.81,490z"/></g><g id="XMLID_828_"><path d="M410,490c-5.51,0-10-4.49-10-10V350c0-5.521,4.49-10,10-10s10,4.479,10,10v130C420,485.51,415.51,490,410,490z"/></g><g id="XMLID_829_"><path d="M257.5,239.52L257.5,239.52c-6.75,0-13.3-1.32-19.46-3.93c-5.96-2.52-11.3-6.12-15.89-10.71     c-4.6-4.6-8.2-9.94-10.72-15.9c-2.61-6.16-3.93-12.71-3.93-19.46s1.32-13.3,3.93-19.46c2.52-5.96,6.12-11.3,10.72-15.89     c4.59-4.6,9.93-8.2,15.89-10.72c6.16-2.61,12.71-3.93,19.46-3.93s13.3,1.32,19.46,3.93c5.96,2.52,11.3,6.12,15.89,10.72     c4.601,4.59,8.2,9.93,10.72,15.89c2.61,6.16,3.931,12.71,3.931,19.46s-1.32,13.3-3.931,19.46c-2.52,5.96-6.119,11.3-10.72,15.9     c-4.59,4.59-9.93,8.19-15.89,10.71C270.8,238.2,264.25,239.52,257.5,239.52z M257.5,159.52c-16.51,0.03-29.97,13.49-30,30     c0.03,16.51,13.49,29.97,30,30c16.51-0.03,29.97-13.49,30-30C287.47,173.01,274.01,159.55,257.5,159.52L257.5,159.52z"/></g><g id="XMLID_830_"><path d="M305,394.52c-5.521,0-10-4.489-10-10v-85c0-5.51,4.479-10,10-10c5.51,0,10,4.49,10,10v85     C315,390.03,310.51,394.52,305,394.52z"/></g><g id="XMLID_831_"><path d="M210,394.52c-5.51,0-10-4.489-10-10v-85c0-5.51,4.49-10,10-10c5.51,0,10,4.49,10,10v85     C220,390.03,215.51,394.52,210,394.52z"/></g><g id="XMLID_832_"><path d="M305,500.479h-95c-2.63,0-5.21-1.069-7.07-2.93c-1.86-1.86-2.93-4.44-2.93-7.07v-81.46c-2.01,0.41-4.1,0.57-6.17,0.471     h-0.02c-6.46-0.301-12.68-3.23-17.07-8.051c-4.34-4.739-6.73-10.899-6.74-17.34v-94.58c0-10.689,4.16-20.729,11.72-28.279     c7.55-7.55,17.59-11.72,28.28-11.72h95c10.689,0,20.729,4.17,28.28,11.72c7.56,7.55,11.72,17.59,11.72,28.279v94.58     c-0.01,6.44-2.4,12.601-6.74,17.34c-4.39,4.82-10.61,7.75-17.07,8.051h-0.069c-0.34,0.02-0.721,0.029-1.12,0.029     c-8.33,0-16.08-4.12-20.72-11.01l-0.011-0.01c-1.12-1.66-1.71-3.59-1.71-5.59c0-3.33,1.641-6.431,4.4-8.29     c1.66-1.13,3.59-1.721,5.59-1.721c3.33,0,6.43,1.65,8.3,4.41c0.96,1.4,2.48,2.21,4.15,2.21c0.06,0,0.149,0,0.26-0.01     c1.25-0.06,2.32-0.58,3.26-1.58c0.94-1.03,1.48-2.43,1.48-3.83v-94.58c-0.021-11.01-8.99-19.979-20-20h-95     c-11.01,0.021-19.98,8.99-20,20v94.58c0,1.4,0.54,2.8,1.48,3.83c0.94,1,2.01,1.521,3.26,1.58c0.01,0,0.01,0.01,0.01,0.01     c0.1,0,0.18,0,0.25,0c2.75,0,5-2.25,5-5c0-2.63,1.07-5.21,2.93-7.069c1.86-1.86,4.44-2.931,7.07-2.931     c2.63,0,5.21,1.07,7.07,2.931c1.86,1.859,2.93,4.439,2.93,7.069v95.96h75v-4.859c0-5.511,4.49-9.99,10-9.99s10,4.479,10,9.99     v14.859c0,2.63-1.07,5.21-2.931,7.07C310.21,499.41,307.63,500.479,305,500.479z M305,435.62c-5.51,0-10-4.48-10-10     c0-5.511,4.49-10,10-10s10,4.489,10,10C315,431.14,310.51,435.62,305,435.62z"/></g><g id="XMLID_833_"><path d="M255,500.479c-5.51,0-10-4.489-10-10V430c0-5.51,4.49-10,10-10c5.51,0,10,4.49,10,10v60.479     C265,495.99,260.51,500.479,255,500.479z"/></g><g id="XMLID_834_"><path d="M102.5,140L102.5,140c-6.75,0-13.3-1.32-19.46-3.93c-5.96-2.52-11.3-6.12-15.89-10.72c-4.6-4.59-8.2-9.93-10.72-15.89     C53.82,103.3,52.5,96.75,52.5,90s1.32-13.3,3.93-19.46c2.52-5.96,6.12-11.3,10.72-15.89c4.59-4.59,9.93-8.2,15.89-10.72     C89.2,41.33,95.75,40,102.5,40s13.3,1.33,19.46,3.93c5.96,2.52,11.3,6.13,15.89,10.72c4.6,4.59,8.2,9.93,10.72,15.89     c2.61,6.16,3.93,12.71,3.93,19.46s-1.32,13.3-3.93,19.46c-2.52,5.96-6.12,11.3-10.72,15.89c-4.59,4.6-9.93,8.2-15.89,10.72     C115.8,138.68,109.25,140,102.5,140z M102.5,60c-16.51,0.03-29.97,13.49-30,30c0.03,16.51,13.49,29.97,30,30     c16.51-0.03,29.97-13.49,30-30C132.47,73.49,119.01,60.03,102.5,60L102.5,60z"/></g><g id="XMLID_835_"><path d="M150,295c-5.51,0-10-4.49-10-10v-85c0-5.51,4.49-10,10-10c5.51,0,10,4.49,10,10v85C160,290.51,155.51,295,150,295z"/></g><g id="XMLID_836_"><path d="M55,295c-5.51,0-10-4.49-10-10v-85c0-5.51,4.49-10,10-10c5.51,0,10,4.49,10,10v85C65,290.51,60.51,295,55,295z"/></g><g id="XMLID_837_"><path d="M125.82,490c-5.52,0-10-4.49-10-10s4.48-10,10-10c5.51,0,10,4.49,10,10S131.33,490,125.82,490z M75.81,490H55     c-2.63,0-5.21-1.07-7.07-2.931C46.07,485.21,45,482.63,45,480V309.5c-1.64,0.33-3.32,0.5-5,0.5c-0.37,0-0.75-0.01-1.17-0.03     h-0.02c-6.46-0.3-12.68-3.229-17.07-8.05c-4.34-4.73-6.73-10.9-6.74-17.34V190c0-10.69,4.16-20.73,11.72-28.28     C34.27,154.16,44.31,150,55,150h95c10.69,0,20.73,4.16,28.28,11.72C185.84,169.27,190,179.31,190,190v94.58     c0,6.439-2.4,12.609-6.74,17.34c-4.39,4.82-10.61,7.75-17.07,8.05h-0.03c-0.41,0.021-0.79,0.03-1.16,0.03     c-1.68,0-3.36-0.17-5-0.5v144.689c0,5.511-4.49,10-10,10c-5.51,0-10-4.489-10-10V285c0-2.63,1.07-5.21,2.93-7.07     c1.86-1.86,4.44-2.93,7.07-2.93c2.63,0,5.21,1.069,7.07,2.93S160,282.37,160,285c0,2.75,2.25,4.99,5,5c0.08,0,0.17,0,0.29-0.01     l0,0c1.24-0.07,2.3-0.591,3.22-1.58c0.95-1.03,1.49-2.431,1.49-3.83V190c-0.02-11.01-8.99-19.98-20-20H55     c-11.01,0.02-19.98,8.99-20,20v94.58c0,1.399,0.54,2.8,1.49,3.83c0.92,0.989,1.98,1.51,3.22,1.58c0,0,0,0,0.01,0     C39.83,290,39.92,290,40,290c2.75-0.01,5-2.25,5-5c0-2.63,1.07-5.21,2.93-7.07c1.86-1.86,4.44-2.93,7.07-2.93     c2.63,0,5.21,1.069,7.07,2.93S65,282.37,65,285v185h10.81c5.52,0,10,4.49,10,10S81.33,490,75.81,490z"/></g><g id="XMLID_838_"><path d="M100,490c-5.51,0-10-4.49-10-10V350c0-5.521,4.49-10,10-10c5.51,0,10,4.479,10,10v130C110,485.51,105.51,490,100,490z"/></g></g></g><g id="Layer_1"/></svg>